<mxfile host="app.diagrams.net" modified="2023-01-06T07:47:40.840Z" agent="5.0 (Macintosh; Intel Mac OS X 10_15_7) AppleWebKit/537.36 (KHTML, like Gecko) Chrome/108.0.0.0 Safari/537.36" version="20.8.1" etag="U5ypGRgqW5cFxoMCinF3" type="github">
  <diagram id="YjH4A-h3UoiQG95Wum6k" name="Page-1">
    <mxGraphModel dx="1026" dy="536" grid="1" gridSize="10" guides="1" tooltips="1" connect="1" arrows="1" fold="1" page="1" pageScale="1" pageWidth="850" pageHeight="1100" math="0" shadow="0">
      <root>
        <mxCell id="0" />
        <mxCell id="1" parent="0" />
        <mxCell id="cEQqdzMdcJtUVDmGanqC-3" style="edgeStyle=orthogonalEdgeStyle;rounded=0;orthogonalLoop=1;jettySize=auto;html=1;exitX=1;exitY=0.5;exitDx=0;exitDy=0;entryX=0;entryY=0.5;entryDx=0;entryDy=0;" edge="1" parent="1" source="cEQqdzMdcJtUVDmGanqC-1" target="cEQqdzMdcJtUVDmGanqC-2">
          <mxGeometry relative="1" as="geometry" />
        </mxCell>
        <mxCell id="cEQqdzMdcJtUVDmGanqC-1" value="Home Screen" style="rounded=0;whiteSpace=wrap;html=1;" vertex="1" parent="1">
          <mxGeometry x="50" y="110" width="120" height="60" as="geometry" />
        </mxCell>
        <mxCell id="cEQqdzMdcJtUVDmGanqC-6" value="Back Butotn" style="edgeStyle=orthogonalEdgeStyle;rounded=0;orthogonalLoop=1;jettySize=auto;html=1;exitX=0.5;exitY=0;exitDx=0;exitDy=0;entryX=0.5;entryY=0;entryDx=0;entryDy=0;" edge="1" parent="1" source="cEQqdzMdcJtUVDmGanqC-2" target="cEQqdzMdcJtUVDmGanqC-1">
          <mxGeometry relative="1" as="geometry">
            <Array as="points">
              <mxPoint x="290" y="70" />
              <mxPoint x="110" y="70" />
            </Array>
          </mxGeometry>
        </mxCell>
        <mxCell id="cEQqdzMdcJtUVDmGanqC-8" style="edgeStyle=orthogonalEdgeStyle;rounded=0;orthogonalLoop=1;jettySize=auto;html=1;exitX=1;exitY=0.5;exitDx=0;exitDy=0;entryX=0;entryY=0.5;entryDx=0;entryDy=0;" edge="1" parent="1" source="cEQqdzMdcJtUVDmGanqC-2" target="cEQqdzMdcJtUVDmGanqC-7">
          <mxGeometry relative="1" as="geometry" />
        </mxCell>
        <mxCell id="cEQqdzMdcJtUVDmGanqC-10" value="Click từng ngày" style="edgeLabel;html=1;align=center;verticalAlign=middle;resizable=0;points=[];" vertex="1" connectable="0" parent="cEQqdzMdcJtUVDmGanqC-8">
          <mxGeometry x="-0.4889" relative="1" as="geometry">
            <mxPoint x="27" as="offset" />
          </mxGeometry>
        </mxCell>
        <mxCell id="cEQqdzMdcJtUVDmGanqC-2" value="Daily Reward" style="rounded=0;whiteSpace=wrap;html=1;" vertex="1" parent="1">
          <mxGeometry x="230" y="110" width="120" height="60" as="geometry" />
        </mxCell>
        <mxCell id="cEQqdzMdcJtUVDmGanqC-4" value="Call API Daily Reward" style="text;html=1;align=center;verticalAlign=middle;resizable=0;points=[];autosize=1;strokeColor=none;fillColor=none;" vertex="1" parent="1">
          <mxGeometry x="220" y="180" width="140" height="30" as="geometry" />
        </mxCell>
        <mxCell id="cEQqdzMdcJtUVDmGanqC-5" value="API CheckUserDailyReward" style="text;html=1;align=center;verticalAlign=middle;resizable=0;points=[];autosize=1;strokeColor=none;fillColor=none;" vertex="1" parent="1">
          <mxGeometry x="20" y="180" width="170" height="30" as="geometry" />
        </mxCell>
        <mxCell id="cEQqdzMdcJtUVDmGanqC-13" style="edgeStyle=orthogonalEdgeStyle;rounded=0;orthogonalLoop=1;jettySize=auto;html=1;exitX=1;exitY=0.5;exitDx=0;exitDy=0;entryX=0;entryY=0.5;entryDx=0;entryDy=0;" edge="1" parent="1" source="cEQqdzMdcJtUVDmGanqC-7" target="cEQqdzMdcJtUVDmGanqC-12">
          <mxGeometry relative="1" as="geometry" />
        </mxCell>
        <mxCell id="cEQqdzMdcJtUVDmGanqC-19" value="Exit Popup" style="edgeStyle=orthogonalEdgeStyle;rounded=0;orthogonalLoop=1;jettySize=auto;html=1;exitX=0.5;exitY=0;exitDx=0;exitDy=0;entryX=0.75;entryY=0;entryDx=0;entryDy=0;" edge="1" parent="1" source="cEQqdzMdcJtUVDmGanqC-7" target="cEQqdzMdcJtUVDmGanqC-2">
          <mxGeometry relative="1" as="geometry">
            <Array as="points">
              <mxPoint x="540" y="70" />
              <mxPoint x="320" y="70" />
            </Array>
          </mxGeometry>
        </mxCell>
        <mxCell id="cEQqdzMdcJtUVDmGanqC-7" value="Popup Reward (List các item )" style="rounded=0;whiteSpace=wrap;html=1;" vertex="1" parent="1">
          <mxGeometry x="480" y="110" width="120" height="60" as="geometry" />
        </mxCell>
        <mxCell id="cEQqdzMdcJtUVDmGanqC-11" value="Call API Daily Reward List Item?&lt;br&gt;Hoặc call ở API trước?" style="text;html=1;align=center;verticalAlign=middle;resizable=0;points=[];autosize=1;strokeColor=none;fillColor=none;" vertex="1" parent="1">
          <mxGeometry x="440" y="175" width="200" height="40" as="geometry" />
        </mxCell>
        <mxCell id="cEQqdzMdcJtUVDmGanqC-20" value="Any Space&amp;nbsp;" style="edgeStyle=orthogonalEdgeStyle;rounded=0;orthogonalLoop=1;jettySize=auto;html=1;exitX=0.5;exitY=0;exitDx=0;exitDy=0;entryX=0.75;entryY=0;entryDx=0;entryDy=0;" edge="1" parent="1" source="cEQqdzMdcJtUVDmGanqC-12" target="cEQqdzMdcJtUVDmGanqC-7">
          <mxGeometry relative="1" as="geometry">
            <Array as="points">
              <mxPoint x="780" y="70" />
              <mxPoint x="570" y="70" />
            </Array>
          </mxGeometry>
        </mxCell>
        <mxCell id="cEQqdzMdcJtUVDmGanqC-12" value="Item Button (để nhận thưởng)" style="rounded=1;whiteSpace=wrap;html=1;" vertex="1" parent="1">
          <mxGeometry x="720" y="110" width="120" height="60" as="geometry" />
        </mxCell>
        <mxCell id="cEQqdzMdcJtUVDmGanqC-18" value="Mỗi lần nhận thưởng 1 item thì đều call API?&lt;br&gt;Hoặc click nhiều item trên giao diện rồi apply 1 lần" style="text;html=1;align=center;verticalAlign=middle;resizable=0;points=[];autosize=1;strokeColor=none;fillColor=none;" vertex="1" parent="1">
          <mxGeometry x="630" y="180" width="290" height="40" as="geometry" />
        </mxCell>
      </root>
    </mxGraphModel>
  </diagram>
</mxfile>
